<svg width="67" height="67" viewBox="0 0 67 67" fill="none" xmlns="http://www.w3.org/2000/svg">
<path d="M19.2322 45.3778C19.2322 42.6417 19.4766 39.9723 19.9655 37.3696C20.4869 34.7669 21.2854 32.281 22.3609 29.9119C23.4364 27.5428 24.7889 25.3573 26.4185 23.3552H31.0627C29.5635 25.424 28.2925 27.6596 27.2495 30.0621C26.2392 32.4646 25.4733 34.9504 24.9519 37.5198C24.4304 40.0891 24.1697 42.6917 24.1697 45.3278C24.1697 47.8971 24.4304 50.4497 24.9519 52.9856C25.4733 55.5216 26.2392 57.9574 27.2495 60.2931C28.2599 62.6622 29.5146 64.8978 31.0138 67H26.4185C24.7889 65.0313 23.4364 62.8791 22.3609 60.5434C21.2854 58.241 20.4869 55.8052 19.9655 53.2359C19.4766 50.6666 19.2322 48.0472 19.2322 45.3778Z" fill="url(#paint0_linear_207_7)"/>
<path d="M53.8205 66.8498H32.4082V63.5965H53.8205V66.8498Z" fill="url(#paint1_linear_207_7)"/>
<path d="M67 45.3778C67 48.0472 66.7393 50.6666 66.2178 53.2359C65.729 55.8052 64.9468 58.241 63.8713 60.5434C62.8284 62.8791 61.4758 65.0313 59.8137 67H55.2183C56.7175 64.8978 57.9723 62.6622 58.9826 60.2931C59.9929 57.9574 60.7425 55.5216 61.2314 52.9856C61.7528 50.4497 62.0136 47.8971 62.0136 45.3278C62.0136 42.6917 61.7528 40.0891 61.2314 37.5198C60.7425 34.9504 59.9929 32.4646 58.9826 30.0621C57.9723 27.6596 56.7012 25.424 55.1695 23.3552H59.8137C61.4758 25.3573 62.8284 27.5428 63.8713 29.9119C64.9468 32.281 65.729 34.7669 66.2178 37.3696C66.7393 39.9723 67 42.6417 67 45.3778Z" fill="url(#paint2_linear_207_7)"/>
<path d="M17.4158 54.1431L0 46.2975V44.1953L17.4158 35.2987V38.6397L4.0698 45.0963L17.4158 50.8021V54.1431Z" fill="url(#paint3_linear_207_7)"/>
<path d="M53.8205 49.6447H32.4082V46.3914H53.8205V49.6447Z" fill="url(#paint4_linear_207_7)"/>
<path d="M42.5882 38.2267C41.2031 38.2059 40.0522 38.0286 39.1356 37.6949C38.219 37.3613 37.5264 36.8399 37.0579 36.1308C36.6098 35.4218 36.3858 34.5354 36.3858 33.4718V28.8108C36.3858 28.1018 36.2432 27.5387 35.958 27.1216C35.6728 26.7045 35.2451 26.4021 34.6747 26.2144C34.1248 26.0267 33.4424 25.9329 32.6276 25.9329V23.2426C33.4424 23.2217 34.1248 23.1175 34.6747 22.9298C35.2451 22.7421 35.6728 22.4397 35.958 22.0226C36.2432 21.6055 36.3858 21.0633 36.3858 20.3959V15.7036C36.3858 14.8903 36.5182 14.1916 36.783 13.6077C37.0478 13.0029 37.445 12.5128 37.9746 12.1375C38.5042 11.7412 39.1458 11.4492 39.8995 11.2616C40.6735 11.053 41.5698 10.9487 42.5882 10.9487V13.5451C41.9364 13.566 41.3763 13.6703 40.9078 13.858C40.4393 14.0457 40.0726 14.3272 39.8078 14.7026C39.543 15.078 39.4106 15.5993 39.4106 16.2667V20.7713C39.4106 21.8141 39.1254 22.6482 38.5551 23.2739C38.0051 23.8787 37.17 24.2749 36.0497 24.4626V24.6503C37.1903 24.8588 38.0357 25.2759 38.5857 25.9016C39.1356 26.5064 39.4106 27.3197 39.4106 28.3416V32.9401C39.4106 33.5866 39.5328 34.0975 39.7773 34.4729C40.0421 34.8691 40.4087 35.1507 40.8772 35.3175C41.3457 35.5052 41.916 35.6095 42.5882 35.6303V38.2267Z" fill="url(#paint5_linear_207_7)"/>
<path d="M45.1483 27.278C46.5334 27.2571 47.6843 27.0799 48.6009 26.7462C49.5176 26.4125 50.2101 25.8912 50.6786 25.1821C51.1267 24.473 51.3508 23.5867 51.3508 22.5231V17.8621C51.3508 17.153 51.4934 16.5899 51.7786 16.1728C52.0637 15.7558 52.4915 15.4534 53.0618 15.2657C53.6118 15.078 54.2942 14.9841 55.109 14.9841V12.2939C54.2942 12.273 53.6118 12.1687 53.0618 11.981C52.4915 11.7934 52.0637 11.491 51.7786 11.0739C51.4934 10.6568 51.3508 10.1145 51.3508 9.44719V4.75488C51.3508 3.94155 51.2184 3.24291 50.9536 2.65898C50.6888 2.05419 50.2916 1.5641 49.762 1.18872C49.2324 0.79248 48.5908 0.500513 47.8371 0.312821C47.0631 0.104274 46.1668 0 45.1483 0V2.59641C45.8001 2.61727 46.3603 2.72154 46.8288 2.90924C47.2973 3.09693 47.6639 3.37847 47.9287 3.75385C48.1936 4.12924 48.326 4.65061 48.326 5.31796V9.82258C48.326 10.8653 48.6111 11.6995 49.1815 12.3251C49.7314 12.9299 50.5666 13.3262 51.6869 13.5139V13.7016C50.5462 13.9101 49.7009 14.3272 49.1509 14.9528C48.6009 15.5576 48.326 16.371 48.326 17.3928V21.9913C48.326 22.6378 48.2037 23.1488 47.9593 23.5241C47.6945 23.9204 47.3279 24.2019 46.8594 24.3688C46.3909 24.5564 45.8205 24.6607 45.1483 24.6816V27.278Z" fill="url(#paint6_linear_207_7)"/>
<defs>
<linearGradient id="paint0_linear_207_7" x1="0" y1="0" x2="72.6516" y2="5.39773" gradientUnits="userSpaceOnUse">
<stop stop-color="#20C4D9"/>
<stop offset="1" stop-color="#1348B0"/>
</linearGradient>
<linearGradient id="paint1_linear_207_7" x1="0" y1="0" x2="72.6516" y2="5.39773" gradientUnits="userSpaceOnUse">
<stop stop-color="#20C4D9"/>
<stop offset="1" stop-color="#1348B0"/>
</linearGradient>
<linearGradient id="paint2_linear_207_7" x1="0" y1="0" x2="72.6516" y2="5.39773" gradientUnits="userSpaceOnUse">
<stop stop-color="#20C4D9"/>
<stop offset="1" stop-color="#1348B0"/>
</linearGradient>
<linearGradient id="paint3_linear_207_7" x1="0" y1="0" x2="72.6516" y2="5.39773" gradientUnits="userSpaceOnUse">
<stop stop-color="#20C4D9"/>
<stop offset="1" stop-color="#1348B0"/>
</linearGradient>
<linearGradient id="paint4_linear_207_7" x1="0" y1="0" x2="72.6516" y2="5.39773" gradientUnits="userSpaceOnUse">
<stop stop-color="#20C4D9"/>
<stop offset="1" stop-color="#1348B0"/>
</linearGradient>
<linearGradient id="paint5_linear_207_7" x1="0" y1="0" x2="72.6516" y2="5.39773" gradientUnits="userSpaceOnUse">
<stop stop-color="#20C4D9"/>
<stop offset="1" stop-color="#1348B0"/>
</linearGradient>
<linearGradient id="paint6_linear_207_7" x1="0" y1="0" x2="72.6516" y2="5.39773" gradientUnits="userSpaceOnUse">
<stop stop-color="#20C4D9"/>
<stop offset="1" stop-color="#1348B0"/>
</linearGradient>
</defs>
</svg>
